<?xml version="1.0" standalone="no"?>
<!DOCTYPE svg PUBLIC "-//W3C//DTD SVG 20010904//EN"
 "http://www.w3.org/TR/2001/REC-SVG-20010904/DTD/svg10.dtd">
<svg version="1.0" xmlns="http://www.w3.org/2000/svg"
 width="16.000000pt" height="16.000000pt" viewBox="0 0 16.000000 16.000000"
 preserveAspectRatio="xMidYMid meet">
<metadata>
Created by potrace 1.11, written by Peter Selinger 2001-2013
</metadata>
<g transform="translate(0.000000,16.000000) scale(0.006154,-0.006154)"
fill="#000000" stroke="none">
<path d="M0 1300 l0 -1300 1300 0 1300 0 0 1300 0 1300 -1300 0 -1300 0 0
-1300z m1060 539 c93 -45 148 -113 175 -214 50 -196 -24 -399 -173 -472 -56
-27 -62 -28 -254 -31 l-198 -4 0 -239 0 -239 -70 0 -70 0 0 616 0 616 268 -4
c265 -3 267 -3 322 -29z m1130 -39 l0 -70 -170 0 -170 0 0 -545 0 -545 -70 0
-70 0 0 545 0 545 -170 0 -170 0 0 70 0 70 410 0 410 0 0 -70z"/>
<path d="M610 1495 l0 -247 178 4 c167 3 179 4 221 28 69 39 96 99 96 215 0
116 -24 172 -93 213 -46 26 -52 27 -224 30 l-178 4 0 -247z"/>
</g>
</svg>
